{"title":"My Little Pony-Equestria Girls XVID.avi","uid":8619985,"size":296257478,"categoryP":"video","categoryS":"movies","magnet":"?xt=urn:btih:7de7bd033b05bc468d3952edaa931f40266c1bd7&amp;dn=My+Little+Pony-Equestria+Girls+XVID.avi&amp;tr=udp%3A%2F%2Ftracker.openbittorrent.com%3A80&amp;tr=udp%3A%2F%2Fopen.demonii.com%3A1337&amp;tr=udp%3A%2F%2Ftracker.coppersurfer.tk%3A6969&amp;tr=udp%3A%2F%2Fexodus.desync.com%3A6969","seeders":2,"leechers":0,"uploader":"globeplus","files":-1,"time":1372346390,"description":"My Little Pony-Equestria Girls XVID.avi\n\nGeneral\n\nFormat                                   : AVI\nFormat/Info                              : Audio Video Interleave\nFile size                                : 283 MiB\nDuration                                 : 1h 13mn\nOverall bit rate                         : 541 Kbps\nWriting application                      : Lavf52.57.1\n\nVideo\n\nID                                       : 0\nFormat                                   : xvid\nCodec ID                                 : xvid\nDuration                                 : 1h 13mn\nBit rate                                 : 400 Kbps\nWidth                                    : 640 pixels\nHeight                                   : 360 pixels\nDisplay aspect ratio                     : 16:9\nFrame rate                               : 23.976 fps\nBits/(Pixel*Frame)                       : 0.072\nStream size                              : 209 MiB (74%)\n\nAudio\n\nID                                       : 1\nFormat                                   : MPEG Audio\nFormat version                           : Version 1\nFormat profile                           : Layer 3\nMode                                     : Joint stereo\nMode extension                           : MS Stereo\nCodec ID                                 : 55\nCodec ID/Hint                            : MP3\nDuration                                 : 1h 13mn\nBit rate mode                            : Constant\nBit rate                                 : 128 Kbps\nChannel(s)                               : 2 channels\nSampling rate                            : 48.0 KHz\nCompression mode                         : Lossy\nStream size                              : 66.9 MiB (24%)\nAlignment                                : Aligned on interleaves\nInterleave, duration                     : 24 ms (0.58 video frame)\nWriting library                          : LAME3.98.2\n\n\nPlot :\n\nFollowing the events of &quot;Magical Mystery Cure&quot;, Twilight Sparkle is still fretting about her recent coronation as as she and her Ponyville friends travel to the Crystal Empire for a royal summit with Princesses Celestia, Luna, and Cadance. There, Sunset Shimmer, a former and bitter student of Princess Celestia, appears through a magic mirror and steals Twilight's crown, one of the Elements of Harmony. In the tussle, the crown falls through the mirror and Sunset follows it through. Princess Celestia informs Twilight and her friends that the mirror leads to a different world, and that Twilight alone must cross over to retrieve it before the portal closes again for thirty moons, or else the Elements of Harmony will no longer protect Equestria. Twilight enters the mirror, with Spike, her dragon assistant, jumping in after her.\n\nOn the other side, Twilight and Spike themselves transformed into a teenage human girl and dog, respectively, outside of a large school building in an alternate world inhabited by humans. Twilight struggles to adjust to her new body and surroundings, but recognizes several human students resembling her Ponyville friends and sharing their same names: Applejack, Fluttershy, Pinkie Pie, Rarity, and Rainbow Dash. She quickly befriends them, helping to bridge the animosity that Sunset Shimmer had created between them in the years prior to Twilight's arrival. Meanwhile, Twilight discovers that Fluttershy had found the crown and turned it over to the school principal, a human Celestia, much to the annoyance of Sunset, who wants to use the crown for its magical properties.\n\n\n* enjoy ...\n","torrent":{"xt":"urn:btih:7de7bd033b05bc468d3952edaa931f40266c1bd7","amp;dn":"My+Little+Pony-Equestria+Girls+XVID.avi","amp;tr":["udp%3A%2F%2Ftracker.openbittorrent.com%3A80","udp%3A%2F%2Fopen.demonii.com%3A1337","udp%3A%2F%2Ftracker.coppersurfer.tk%3A6969","udp%3A%2F%2Fexodus.desync.com%3A6969"],"infoHash":"7de7bd033b05bc468d3952edaa931f40266c1bd7","infoHashBuffer":{"type":"Buffer","data":[125,231,189,3,59,5,188,70,141,57,82,237,170,147,31,64,38,108,27,215]},"announce":[],"urlList":[]}}